<?xml version="1.0" encoding="UTF-8"?>
<!DOCTYPE svg PUBLIC "-//W3C//DTD SVG 1.1//EN" "http://www.w3.org/Graphics/SVG/1.1/DTD/svg11.dtd">
<svg xmlns="http://www.w3.org/2000/svg" version="1.1" width="465px" height="391px" style="shape-rendering:geometricPrecision; text-rendering:geometricPrecision; image-rendering:optimizeQuality; fill-rule:evenodd; clip-rule:evenodd" xmlns:xlink="http://www.w3.org/1999/xlink">
<g><path style="opacity:1" fill="#fefefe" d="M -0.5,-0.5 C 154.5,-0.5 309.5,-0.5 464.5,-0.5C 464.5,129.833 464.5,260.167 464.5,390.5C 309.5,390.5 154.5,390.5 -0.5,390.5C -0.5,260.167 -0.5,129.833 -0.5,-0.5 Z"/></g>
<g><path style="opacity:1" fill="#647386" d="M 213.5,38.5 C 210.026,39.5249 206.36,40.1916 202.5,40.5C 205.845,38.783 209.511,38.1164 213.5,38.5 Z"/></g>
<g><path style="opacity:1" fill="#59677e" d="M 198.5,40.5 C 193.5,42.943 188.166,44.6096 182.5,45.5C 187.5,43.057 192.834,41.3904 198.5,40.5 Z"/></g>
<g><path style="opacity:1" fill="#162e54" d="M 198.5,176.5 C 197.076,178.515 196.41,180.848 196.5,183.5C 196.5,184.5 196.5,185.5 196.5,186.5C 198.684,188.585 201.351,189.585 204.5,189.5C 212.957,193.372 217.791,200.038 219,209.5C 222.407,231.192 216.907,250.192 202.5,266.5C 199.651,267.92 198.984,269.92 200.5,272.5C 200.467,275.836 201.134,279.003 202.5,282C 217.311,285.749 229.811,282.249 240,271.5C 241.492,258.199 245.158,245.532 251,233.5C 259.833,218.342 270.5,204.675 283,192.5C 285.139,193.236 287.139,194.236 289,195.5C 289.184,203.079 289.684,210.579 290.5,218C 297.274,218.078 303.941,218.745 310.5,220C 316.204,225.406 321.204,231.406 325.5,238C 338.283,239.038 343.117,245.871 340,258.5C 339.157,262.221 337.657,265.554 335.5,268.5C 333.521,269.812 331.855,271.479 330.5,273.5C 325.182,276.144 319.848,278.477 314.5,280.5C 313.178,280.33 312.011,280.663 311,281.5C 310.333,285.167 310.333,288.833 311,292.5C 314.137,300.746 316.971,309.079 319.5,317.5C 340.914,301.065 356.248,280.065 365.5,254.5C 361.726,253.694 359.226,251.361 358,247.5C 357.381,244.968 356.381,242.635 355,240.5C 354.333,237.833 354.333,235.167 355,232.5C 357.201,228.217 359.201,223.883 361,219.5C 364.441,215.879 368.274,212.879 372.5,210.5C 374.848,210.408 376.514,209.408 377.5,207.5C 379.941,206.443 382.275,205.11 384.5,203.5C 387.255,206.013 389.255,209.013 390.5,212.5C 391.463,215.744 392.796,218.744 394.5,221.5C 397.578,233.926 394.911,244.926 386.5,254.5C 384.218,255.39 381.885,255.556 379.5,255C 378.919,254.107 378.585,253.107 378.5,252C 382.491,247.553 385.658,242.387 388,236.5C 389.585,228.676 387.752,221.843 382.5,216C 380.833,215.333 379.167,215.333 377.5,216C 366.263,223.208 361.93,233.375 364.5,246.5C 366.288,246.785 367.955,246.452 369.5,245.5C 370.347,242.446 371.347,239.446 372.5,236.5C 374.371,235.233 376.204,235.233 378,236.5C 378.667,239.167 378.667,241.833 378,244.5C 375.66,250.019 373.827,255.685 372.5,261.5C 372.167,262.167 371.833,262.833 371.5,263.5C 369.7,264.895 369.366,266.561 370.5,268.5C 371.522,268.145 372.189,267.478 372.5,266.5C 373.167,266.5 373.833,266.5 374.5,266.5C 382.168,265.826 389.501,266.826 396.5,269.5C 400.928,272.891 405.594,276.058 410.5,279C 411.574,279.739 412.241,280.739 412.5,282C 406.211,293.815 396.878,301.649 384.5,305.5C 378.697,305.791 373.03,305.125 367.5,303.5C 364.674,302.113 364.007,300.113 365.5,297.5C 367.717,296.631 370.05,296.298 372.5,296.5C 374.679,297.926 377.179,298.592 380,298.5C 381.707,298.492 383.207,298.158 384.5,297.5C 391.658,294.916 397.325,290.416 401.5,284C 398.181,279.67 393.847,276.837 388.5,275.5C 388.082,274.778 387.416,274.278 386.5,274C 381.761,273.274 377.095,273.607 372.5,275C 370.959,276.371 369.625,277.871 368.5,279.5C 366.72,280.99 366.054,282.99 366.5,285.5C 369.928,285.453 372.928,284.287 375.5,282C 380,281.167 381.833,283 381,287.5C 378.674,289.066 376.508,290.732 374.5,292.5C 367.092,293.852 359.759,294.852 352.5,295.5C 326.851,329.111 293.184,350.111 251.5,358.5C 236.191,359.418 220.858,359.751 205.5,359.5C 194.128,358.257 183.128,355.424 172.5,351C 145.938,341.444 123.438,325.944 105,304.5C 95.3205,292.48 87.1538,279.48 80.5,265.5C 79.6008,261.376 77.9341,257.709 75.5,254.5C 67.9439,233.872 65.1106,212.538 67,190.5C 67.3357,183.467 68.0023,176.467 69,169.5C 78.1485,134.354 95.6485,104.187 121.5,79C 139.183,63.1555 159.516,51.9889 182.5,45.5C 188.166,44.6096 193.5,42.943 198.5,40.5C 199.833,40.5 201.167,40.5 202.5,40.5C 206.36,40.1916 210.026,39.5249 213.5,38.5C 217.916,33.2538 222.916,28.4205 228.5,24C 234.894,21.0661 241.56,19.7327 248.5,20C 248.957,20.414 249.291,20.914 249.5,21.5C 244.361,29.4179 241.527,38.0846 241,47.5C 249.432,50.1329 257.266,53.9662 264.5,59C 302.397,90.5761 338.564,123.743 373,158.5C 374.84,160.681 376.007,163.181 376.5,166C 371.939,177.288 366.439,188.121 360,198.5C 349.482,211.237 336.648,214.07 321.5,207C 305.831,200.083 290.665,192.249 276,183.5C 256.681,192.165 237.181,192.665 217.5,185C 211.412,181.412 205.745,177.246 200.5,172.5C 199.638,173.766 198.971,175.099 198.5,176.5 Z"/></g>
<g><path style="opacity:1" fill="#bac4ce" d="M 171.5,57.5 C 167.839,60.8285 163.506,62.8285 158.5,63.5C 162.405,60.7164 166.738,58.7164 171.5,57.5 Z"/></g>
<g><path style="opacity:1" fill="#afb9c5" d="M 192.5,50.5 C 187.443,52.3587 182.443,54.5254 177.5,57C 175.527,57.4955 173.527,57.6621 171.5,57.5C 178.085,54.1937 185.085,51.8604 192.5,50.5 Z"/></g>
<g><path style="opacity:1" fill="#c1cad3" d="M 220.5,45.5 C 211.611,47.3001 202.611,48.9667 193.5,50.5C 196.804,48.5829 200.471,47.4162 204.5,47C 209.793,46.023 215.126,45.523 220.5,45.5 Z"/></g>
<g><path style="opacity:1" fill="#cad3da" d="M 234.5,37.5 C 234.5,35.8333 234.5,34.1667 234.5,32.5C 231.615,33.3822 228.948,34.7155 226.5,36.5C 229.389,32.0818 233.055,29.9152 237.5,30C 237.018,32.8193 236.018,35.3193 234.5,37.5 Z"/></g>
<g><path style="opacity:1" fill="#fdfdfd" d="M 234.5,37.5 C 233.519,42.1292 233.352,46.7959 234,51.5C 234.465,52.9308 235.299,54.0975 236.5,55C 242.126,55.9798 247.46,57.8132 252.5,60.5C 258.833,65 265.167,69.5 271.5,74C 304.289,103.454 336.456,133.621 368,164.5C 368.927,167.596 367.927,169.93 365,171.5C 362.391,182.765 356.557,191.931 347.5,199C 341.388,201.414 335.054,202.081 328.5,201C 310.535,194.433 293.702,185.6 278,174.5C 262.4,182.57 245.9,184.737 228.5,181C 198.866,168.751 189.866,147.751 201.5,118C 201.233,114.836 199.567,113.836 196.5,115C 192.537,119.427 190.037,124.594 189,130.5C 186.752,143.508 188.919,155.675 195.5,167C 191.42,171.574 189.087,176.907 188.5,183C 181.077,181.199 173.577,179.366 166,177.5C 162.08,177.951 158.247,178.784 154.5,180C 148.03,183.571 141.363,186.571 134.5,189C 130.5,189.667 126.5,189.667 122.5,189C 115.529,187.34 108.529,185.84 101.5,184.5C 99.0769,184.55 97.2436,185.55 96,187.5C 85.9145,208.319 89.4145,226.485 106.5,242C 110.975,245.571 115.975,248.071 121.5,249.5C 120.1,267.899 118.1,286.232 115.5,304.5C 73.227,257.073 63.3937,203.406 86,143.5C 100.334,107.769 124.5,81.102 158.5,63.5C 163.506,62.8285 167.839,60.8285 171.5,57.5C 173.527,57.6621 175.527,57.4955 177.5,57C 182.443,54.5254 187.443,52.3587 192.5,50.5C 192.833,50.5 193.167,50.5 193.5,50.5C 202.611,48.9667 211.611,47.3001 220.5,45.5C 221.769,41.9464 223.769,38.9464 226.5,36.5C 228.948,34.7155 231.615,33.3822 234.5,32.5C 234.5,34.1667 234.5,35.8333 234.5,37.5 Z"/></g>
<g><path style="opacity:1" fill="#8694a3" d="M 198.5,176.5 C 198.59,179.152 197.924,181.485 196.5,183.5C 196.41,180.848 197.076,178.515 198.5,176.5 Z"/></g>
<g><path style="opacity:1" fill="#fcfdfd" d="M 175.5,343.5 C 172.691,341.103 169.358,339.77 165.5,339.5C 163.483,338.471 161.483,337.471 159.5,336.5C 157.967,334.755 155.967,333.755 153.5,333.5C 142.452,328.297 132.619,321.297 124,312.5C 124.687,292.149 125.853,271.815 127.5,251.5C 129.857,251.663 132.19,251.497 134.5,251C 135.517,249.951 135.684,248.784 135,247.5C 118.542,244.944 106.542,236.277 99,221.5C 96.544,211.913 97.2106,202.58 101,193.5C 102,192.5 103,191.5 104,190.5C 114.635,195.487 125.801,197.32 137.5,196C 144.348,192.41 151.348,189.077 158.5,186C 162.761,184.637 167.095,184.304 171.5,185C 181.837,187.751 191.837,191.418 201.5,196C 206.363,199.23 210.196,203.396 213,208.5C 216.995,235.199 207.828,256.032 185.5,271C 178.707,274.989 171.54,276.823 164,276.5C 163.333,272.833 163.333,269.167 164,265.5C 169.333,250.833 174.667,236.167 180,221.5C 180.667,219.167 180.667,216.833 180,214.5C 175.702,213.079 173.035,214.746 172,219.5C 165.871,235.221 160.538,251.221 156,267.5C 154.057,279.887 159.223,285.387 171.5,284C 178.95,282.023 185.784,278.856 192,274.5C 194.73,278.419 195.73,282.753 195,287.5C 192.38,290.576 189.88,293.742 187.5,297C 176.559,298.36 172.059,304.527 174,315.5C 178.333,323.833 184.667,330.167 193,334.5C 194.388,339.372 194.888,344.372 194.5,349.5C 188.329,347.11 181.996,345.11 175.5,343.5 Z"/></g>
<g><path style="opacity:1" fill="#96a1af" d="M 196.5,186.5 C 199.649,186.415 202.316,187.415 204.5,189.5C 201.351,189.585 198.684,188.585 196.5,186.5 Z"/></g>
<g><path style="opacity:1" fill="#647189" d="M 377.5,207.5 C 376.514,209.408 374.848,210.408 372.5,210.5C 373.659,208.75 375.326,207.75 377.5,207.5 Z"/></g>
<g><path style="opacity:1" fill="#fafafb" d="M 280.5,205.5 C 281.326,209.982 281.826,214.649 282,219.5C 282.883,222.102 284.383,224.269 286.5,226C 293.5,226.333 300.5,226.667 307.5,227C 311.889,232.389 315.889,238.056 319.5,244C 323.571,246.115 327.905,247.281 332.5,247.5C 334.051,256.794 331.051,264.294 323.5,270C 317.712,272.431 311.712,273.931 305.5,274.5C 300.379,273.752 295.379,272.752 290.5,271.5C 290.261,273.467 290.594,275.301 291.5,277C 295.35,278.505 299.183,280.005 303,281.5C 305.207,295.456 309.041,308.956 314.5,322C 312.522,323.978 310.522,325.978 308.5,328C 296.003,335.246 283.336,341.913 270.5,348C 264.51,351.107 259.676,349.94 256,344.5C 249.07,336.31 243.404,327.31 239,317.5C 238.505,315.527 238.338,313.527 238.5,311.5C 251.948,312.555 264.281,309.388 275.5,302C 278.715,299.786 281.215,296.952 283,293.5C 283.667,290.833 283.667,288.167 283,285.5C 278.163,282.129 276.163,277.462 277,271.5C 273.726,266.069 268.893,263.403 262.5,263.5C 258.556,263.481 254.889,264.481 251.5,266.5C 250.914,266.291 250.414,265.957 250,265.5C 250.344,254.466 253.344,244.133 259,234.5C 265.998,224.674 273.165,215.007 280.5,205.5 Z"/></g>
<g><path style="opacity:1" fill="#838e9c" d="M 390.5,212.5 C 393.165,214.835 394.498,217.835 394.5,221.5C 392.796,218.744 391.463,215.744 390.5,212.5 Z"/></g>
<g><path style="opacity:1" fill="#f0f2f4" d="M 386.5,254.5 C 385.666,255.748 384.333,256.415 382.5,256.5C 380.9,256.449 379.4,256.116 378,255.5C 377.667,256.833 377.333,258.167 377,259.5C 376.026,257.122 375.359,257.456 375,260.5C 374.329,261.252 373.496,261.586 372.5,261.5C 373.827,255.685 375.66,250.019 378,244.5C 378.667,241.833 378.667,239.167 378,236.5C 376.204,235.233 374.371,235.233 372.5,236.5C 371.347,239.446 370.347,242.446 369.5,245.5C 367.955,246.452 366.288,246.785 364.5,246.5C 361.93,233.375 366.263,223.208 377.5,216C 379.167,215.333 380.833,215.333 382.5,216C 387.752,221.843 389.585,228.676 388,236.5C 385.658,242.387 382.491,247.553 378.5,252C 378.585,253.107 378.919,254.107 379.5,255C 381.885,255.556 384.218,255.39 386.5,254.5 Z"/></g>
<g><path style="opacity:1" fill="#b7bfc9" d="M 75.5,254.5 C 77.9341,257.709 79.6008,261.376 80.5,265.5C 78.5486,263.52 77.0486,261.187 76,258.5C 75.51,257.207 75.3433,255.873 75.5,254.5 Z"/></g>
<g><path style="opacity:1" fill="#b4bdc7" d="M 374.5,266.5 C 381.451,265.037 388.451,265.37 395.5,267.5C 395.863,268.183 396.196,268.85 396.5,269.5C 389.501,266.826 382.168,265.826 374.5,266.5 Z"/></g>
<g><path style="opacity:1" fill="#8696a8" d="M 371.5,263.5 C 371.263,264.791 371.596,265.791 372.5,266.5C 372.189,267.478 371.522,268.145 370.5,268.5C 369.366,266.561 369.7,264.895 371.5,263.5 Z"/></g>
<g><path style="opacity:1" fill="#8c98a8" d="M 202.5,266.5 C 201.37,268.315 200.704,270.315 200.5,272.5C 198.984,269.92 199.651,267.92 202.5,266.5 Z"/></g>
<g><path style="opacity:1" fill="#fbfcfc" d="M 255.5,288.5 C 252.084,288.528 249.084,289.528 246.5,291.5C 241.662,291.911 236.995,292.578 232.5,293.5C 228.287,294.636 227.62,296.803 230.5,300C 235.5,300.667 240.5,300.667 245.5,300C 256.024,296.439 266.358,292.606 276.5,288.5C 274.824,294.68 270.824,298.847 264.5,301C 255.08,304.527 245.414,305.36 235.5,303.5C 233.626,303.39 232.126,304.056 231,305.5C 230.229,312.089 231.229,318.423 234,324.5C 238.449,334.922 244.949,343.755 253.5,351C 235.836,351.5 218.17,351.667 200.5,351.5C 200.666,345.158 200.5,338.825 200,332.5C 197.188,328.338 193.355,325.505 188.5,324C 185.612,320.778 183.112,317.278 181,313.5C 179.817,309.726 180.651,306.559 183.5,304C 189.128,304.775 192.962,302.608 195,297.5C 197.205,294.96 199.705,292.793 202.5,291C 210.757,289.76 219.091,289.093 227.5,289C 237.253,282.241 247.253,275.907 257.5,270C 264.925,267.625 269.592,270.125 271.5,277.5C 271.61,279.374 270.944,280.874 269.5,282C 264.773,284.285 260.107,286.452 255.5,288.5 Z"/></g>
<g><path style="opacity:1" fill="#c0c9d1" d="M 388.5,275.5 C 383.489,275.334 378.489,275.501 373.5,276C 372.211,277.802 370.544,278.969 368.5,279.5C 369.625,277.871 370.959,276.371 372.5,275C 377.095,273.607 381.761,273.274 386.5,274C 387.416,274.278 388.082,274.778 388.5,275.5 Z"/></g>
<g><path style="opacity:1" fill="#d4d9de" d="M 335.5,268.5 C 335.849,272.064 335.183,275.398 333.5,278.5C 327.09,277.843 320.757,278.509 314.5,280.5C 319.848,278.477 325.182,276.144 330.5,273.5C 331.855,271.479 333.521,269.812 335.5,268.5 Z"/></g>
<g><path style="opacity:1" fill="#eff2f4" d="M 388.5,275.5 C 393.847,276.837 398.181,279.67 401.5,284C 397.325,290.416 391.658,294.916 384.5,297.5C 380.466,297.495 376.466,297.162 372.5,296.5C 372.082,295.778 371.416,295.278 370.5,295C 371.858,294.066 373.192,293.232 374.5,292.5C 376.508,290.732 378.674,289.066 381,287.5C 381.833,283 380,281.167 375.5,282C 372.928,284.287 369.928,285.453 366.5,285.5C 366.054,282.99 366.72,280.99 368.5,279.5C 370.544,278.969 372.211,277.802 373.5,276C 378.489,275.501 383.489,275.334 388.5,275.5 Z"/></g>
<g><path style="opacity:1" fill="#768195" d="M 255.5,288.5 C 252.855,290.31 249.855,291.31 246.5,291.5C 249.084,289.528 252.084,288.528 255.5,288.5 Z"/></g>
<g><path style="opacity:1" fill="#748094" d="M 246.5,291.5 C 246.082,292.222 245.416,292.722 244.5,293C 240.514,293.499 236.514,293.666 232.5,293.5C 236.995,292.578 241.662,291.911 246.5,291.5 Z"/></g>
<g><path style="opacity:1" fill="#79879a" d="M 374.5,292.5 C 373.192,293.232 371.858,294.066 370.5,295C 371.416,295.278 372.082,295.778 372.5,296.5C 370.05,296.298 367.717,296.631 365.5,297.5C 361.627,295.57 357.294,294.903 352.5,295.5C 359.759,294.852 367.092,293.852 374.5,292.5 Z"/></g>
<g><path style="opacity:1" fill="#637287" d="M 372.5,296.5 C 376.466,297.162 380.466,297.495 384.5,297.5C 383.207,298.158 381.707,298.492 380,298.5C 377.179,298.592 374.679,297.926 372.5,296.5 Z"/></g>
<g><path style="opacity:1" fill="#abb5c0" d="M 367.5,303.5 C 373.03,305.125 378.697,305.791 384.5,305.5C 380.689,306.645 376.689,306.812 372.5,306C 370.347,305.901 368.681,305.067 367.5,303.5 Z"/></g>
<g><path style="opacity:1" fill="#8b97a5" d="M 153.5,333.5 C 155.967,333.755 157.967,334.755 159.5,336.5C 157.033,336.245 155.033,335.245 153.5,333.5 Z"/></g>
<g><path style="opacity:1" fill="#95a1ae" d="M 165.5,339.5 C 169.358,339.77 172.691,341.103 175.5,343.5C 171.851,342.733 168.518,341.4 165.5,339.5 Z"/></g>
<g><path style="opacity:1" fill="#8c95a3" d="M 251.5,358.5 C 251.082,359.222 250.416,359.722 249.5,360C 234.661,360.828 219.994,360.661 205.5,359.5C 220.858,359.751 236.191,359.418 251.5,358.5 Z"/></g>
</svg>
